<?xml version="1.0" encoding="utf-8"?>
<!-- Generator: Adobe Illustrator 19.0.0, SVG Export Plug-In . SVG Version: 6.00 Build 0)  -->
<svg version="1.1" id="Camada_1" xmlns="http://www.w3.org/2000/svg" xmlns:xlink="http://www.w3.org/1999/xlink" x="0px" y="0px"
	 viewBox="2426 94 611.2 605" style="enable-background:new 2426 94 611.2 605;" xml:space="preserve">
<g>
	<path d="M2426,95l523.5,554.5c0,0,17.8,12.6,31.5-2.1c13.6-14.7,3.2-29.3,3.2-29.3L2426,95z M2591.8,147.5l398.6,429.7
		c0,0,17.8,12.6,31.5-2.1c13.6-14.7,3.1-29.3,3.1-29.3S2591.8,147.5,2591.8,147.5z M2475.3,259.6L2874,689.3c0,0,17.8,12.6,31.5-2.1
		s3.1-29.3,3.1-29.3L2475.3,259.6z M2731.9,192.5l278.5,300.2c0,0,12.5,8.8,22-1.5c9.5-10.3,2.2-20.5,2.2-20.5L2731.9,192.5
		L2731.9,192.5z M2513.7,389.6l278.5,300.2c0,0,12.5,8.8,22-1.5c9.5-10.3,2.2-20.5,2.2-20.5L2513.7,389.6L2513.7,389.6z M2875,257.5
		L3001.2,394c0,0,6.2,4.1,10.9-0.7c4.7-4.8,1.1-9.6,1.1-9.6L2875,257.5L2875,257.5z M2583.4,527.9l126.2,136.5c0,0,6.2,4.1,10.9-0.7
		c4.7-4.8,1.1-9.6,1.1-9.6L2583.4,527.9z"/>
</g>
</svg>
